<?xml version="1.0" encoding="utf-8"?>
<!-- Generator: Adobe Illustrator 21.0.0, SVG Export Plug-In . SVG Version: 6.00 Build 0)  -->
<svg version="1.1" id="レイヤー_1" xmlns="http://www.w3.org/2000/svg" xmlns:xlink="http://www.w3.org/1999/xlink" x="0px"
	 y="0px" viewBox="0 0 960 430.9" style="enable-background:new 0 0 960 430.9;" xml:space="preserve">
<style type="text/css">
	.st0{fill:#E1F4FB;}
	.st1{fill:#FFFFFF;}
	.st2{fill:#0E5D72;}
</style>
<rect x="441.8" y="208.1" transform="matrix(0.8028 -0.5963 0.5963 0.8028 -91.1506 332.2504)" width="29.7" height="191.6"/>
<circle class="st0" cx="401.6" cy="229.5" r="95.5"/>
<g>
	<path class="st1" d="M40.2,63.6c-1.8,0-2.8-1.2-4.2-3.6c-3.9-6.5-4.6-7.6-8.4-10.8l0.3-0.6c4,1,15.6,4.2,15.6,11
		C43.5,62.3,42,63.6,40.2,63.6z M48.1,74c-5.2,16.2-6,17.9-6,20.3c0,2,0.2,2.9,2.4,9.9c0.8,2.5,1.2,5.1,1.2,7.5c0,3-1.3,4.7-3.8,4.7
		c-3.8,0-4.3-5-4.3-7.8c0-1,0.1-5.4,0.1-6.3c-0.6-10.7-6.1-12.5-8.3-13.2v-0.8c1,0.1,1.7,0.2,2.6,0.2c5,0,6.3-2.5,8.2-6.3
		c4.7-9.9,11.7-25,12-26c0.1-0.1,0.6-1.4,0.7-1.8l1,0.4C53.4,56.8,53,58.6,48.1,74z M46.8,37.8c-2.3,0-3.1-1.7-4.7-5.6
		c-2.2-5.3-4.1-7.4-6.2-9.3l0.3-0.7c2.6,0.8,14.2,4.5,14.2,11.3C50.5,35.4,49.4,37.8,46.8,37.8z M129.5,50.8h-18.3
		c0,1,0.7,15,0.7,15.2c0,1.7-0.2,2.1-0.7,2.6c-0.9,1.1-2.6,1.9-3.6,1.9c-1.9,0-2-1.4-2.1-2.8H87.3l0.1,12.5h20.1l3.1-3.6
		c0.8-1,1.2-1.7,1.9-1.7c0.6,0,1.1,0.4,2.1,1.3l4.3,3.8c0.6,0.4,1.1,0.9,1.1,1.7c0,1.2-1.2,1.2-1.7,1.2H87.6L88,95.3h26.9l3.4-3.5
		c0.7-0.8,1.1-1.3,1.7-1.3c0.6,0,1.2,0.6,2,1.2l4.2,3.5c0.4,0.3,1.1,0.9,1.1,1.7c0,1.1-1.2,1.1-1.7,1.1H88.1
		c0,2.6,0.7,15.2,0.7,18.1c0,2.4-2.3,4.4-5,4.4c-2.6,0-2.8-1.5-2.8-2.8c0-1,0.4-5.5,0.4-6.5c0-1.9,0-11.1,0.1-13.2H66
		c-2.3,0-8.9,0.3-14.2,1.3l-2.6-4.7c5.7,0.4,12.7,0.8,18.4,0.8h14c0-4.1,0.1-10.6,0.1-12.4h-9.6c-2.3,0-8.9,0.2-14.2,1.2l-2.6-4.7
		c5.7,0.4,12.7,0.9,18.4,0.9h8.1V67.8h-7.4c-2.2,0-8.9,0.3-14.2,1.3l-2.5-4.7c6.1,0.4,12.1,0.8,18.3,0.8h5.7V50.8H70.5
		c-2.2,0-8.9,0.3-14.1,1.3l-2.6-4.7c5.7,0.4,12.6,0.8,18.3,0.8h9.5l-0.1-12.6h-6c-2.3,0-8.9,0.2-14.2,1.2l-2.6-4.7
		C64.7,32.6,70.8,33,77,33h4.3c0-8.8-0.9-10.9-2.4-13.9l10.7,2.3c1.2,0.2,2.2,0.4,2.2,1.5c0,0.9-0.2,1.1-4.2,3.4
		c-0.1,1.7-0.1,2.1-0.1,6.6h15.4l3.8-3.1c0.4-0.3,1-0.9,1.3-0.9c0.4,0,0.7,0.2,1.2,0.7l3.5,2.8c0.8,0.6,1.4,1.1,1.4,1.9
		c0,0.4-0.2,0.8-0.4,1c-0.4,0.4-2.4,2.1-2.9,2.5c0,3,0,6,0.2,10.4h7.8l3.2-4.1c1.2-1.4,1.3-1.5,1.9-1.5c0.4,0,1.5,0.9,2,1.3l4.2,4.1
		c0.3,0.3,1.1,1,1.1,1.7C131.3,50.8,130,50.8,129.5,50.8z M105.3,35.6H87.4l-0.2,12.6h18.1V35.6z M105.3,50.8H87.2v3.9
		c0,1.4,0.1,8.8,0.1,10.5h18V50.8z"/>
	<path class="st1" d="M231.2,50.5c-0.2,4-0.2,5.4-0.2,16.3c0,1.9,0,22.2,0.2,28.2c0.3,11.5,0.3,12.8,0.3,15.3c0,1.9,0,5.3-4.2,5.3
		c-2.6,0-2.8-2-2.8-4.1c0-1,0.3-5.4,0.3-6.3h-68.1c0.1,7.1,0.1,7.8-0.1,8.5c-0.7,1.5-3.5,2.1-4.4,2.1c-2.4,0-2.4-2.3-2.4-3.3
		c0-2.4,0.2-6.2,0.3-8.6c0.4-14.9,0.6-35.4,0.6-37.3c0-14.9-0.8-20.1-1.9-25.3l10.3,3.2c0.9,0.3,1.8,0.7,1.8,1.7
		c0,1.1-0.9,1.7-4.2,3.8c-0.2,4.7,0.1,52.1,0.1,52.6h30.2c0-8.6,0.1-46.8,0.1-54.5c0-16.3-0.8-19.9-2.2-26.5l10.6,3
		c1.3,0.3,1.7,0.7,1.7,1.3c0,1.2-1.2,2.2-3.8,4.3c-0.1,0.3-0.2,1.9-0.2,2.1c-0.1,20.9-0.1,23.2-0.1,43.8V101v1.7H225
		c0.3-14.2,0.1-37.7,0-43.4c-0.1-7.9-0.4-11.1-2.1-17.1l9.7,3c1.7,0.6,2.1,0.8,2.1,1.7C234.7,48.1,233.1,49.2,231.2,50.5z"/>
	<path class="st1" d="M348.4,40.6h-52.2l8.7,2.8c0.6,0.2,1.4,0.7,1.4,1.4c0,1-1.7,2.2-3.2,3.4c-0.3,4.3-0.4,7-0.6,11.1h23.9l2.9-2.9
		c0.2-0.2,1.1-1.1,1.8-1.1c0.6,0,1.7,1,1.9,1.1l2.6,2.3c1.8,1.5,1.9,1.7,1.9,2.3c0,1-1.7,2.3-2.8,3.1c-0.1,3,0.6,30,0.6,35.8
		c0,3.3-0.2,5.2-3.1,7.7c-3.1,2.8-5.8,3.3-7.7,3.6c-0.9-2.1-2.3-5.5-8.8-8.4V102c1.9,0.2,3.4,0.4,6.5,0.4c6.7,0,6.7-1.2,6.8-2.8
		c0.1-4.4,0-15.9,0-24.3V62h-26.5c0,12.2,0,17.4,0.6,38.4c0,2.3,0.4,12.9,0.4,15.1c0,4.1-4.4,5-5.2,5c-2.5,0-2.5-1.7-2.5-4.4
		c0-0.3,1-19.9,1-23.5c0.1-9.4,0.1-20.4,0-30.6h-24.3v1.4l-0.1,21.5l0.4,20c0.1,2.6,0,5.8-4.6,5.8c-2.5,0-2.5-1.5-2.5-2.3
		c0-1,0.2-5.4,0.3-6.3c0.3-9.4,0.6-18.9,0.6-28.2c0-11.4-0.3-13.9-1.3-18.9l9.4,4.3h22.2c-0.1-13.2-0.1-14.2-1.1-18.8h-29.4
		c-3.9,0-9.9,0.4-14.1,1.2l-2.6-4.7c8.3,0.7,16.3,0.9,18.3,0.9h29c0-12.7-0.7-15.6-2.9-19l10.7,2.2c1.2,0.2,2.3,0.6,2.3,1.7
		c0,1.1-2,2.2-4.1,3.5c-0.1,6.1-0.1,8.5,0,11.6h32.1l4.2-5.3c0.7-0.8,1.1-1.3,1.8-1.3s1.9,1,2,1.1l6,5.3c0.7,0.6,1.1,1,1.1,1.7
		C350.2,40.3,349.2,40.6,348.4,40.6z"/>
</g>
<path class="st1" d="M86.3,178.9c0,4.6,0.1,12.9,0.1,24.7c0.1,14.3,1.2,37.2,1.2,51.5c0,4.9-5.6,5.4-6.6,5.4c-5.6,0-5.7-2.6-5.9-5.6
	H55.2c0.1,2.1,0.1,2.4,0,2.9l11,6.9c0.6,0.3,1.8,1.2,1.8,2.5c0,2.5-4.3,2.6-6,2.8c-3.5,3.2-16.3,15-31.2,20.2l-0.4-0.6
	c7.4-6.5,13.8-14.3,22.1-28.7c-1.6,0.6-3.1,0.7-4.3,0.7c-5,0-5-2.1-5-4.9c0-5,0.3-27.2,0.3-31.8c0-40.6-0.1-41.8-2.1-61.1l12.9,6h19
	l5.4-4.3c0.6-0.4,1-0.7,1.6-0.7c0.4,0,1,0.3,1.6,0.7l6.8,4.1c1.3,0.9,2.2,2.1,2.2,3.4C91,175.1,90,175.9,86.3,178.9z M74.9,173.6
	H55.2v23.2h19.7V173.6z M74.9,200.4H55.2v23.2h19.7V200.4z M74.9,227.2H55.2v24.3h19.7V227.2z M86.9,286.6c-4.6,0-5.9-2.9-10-11.8
	c-2.6-5.7-5.1-10.3-9.1-14.7l0.6-1c11.3,4.1,25.5,9,25.5,20.7C93.8,286,87.6,286.6,86.9,286.6z M161,201.8h-25v26.8
	c0,1.8,1.8,40.9,1.8,43.4c0,8.8-1.8,12.7-7.5,16.2c-1.3,0.7-5.7,3.4-12.2,4c-1-5.7-6.2-13.2-13.5-16.9l0.1-0.4h15.7
	c2.2,0,4.3-0.6,4.3-5.4c0-13.5-0.6-35.2-0.7-48.7c-12.4,21.5-28.4,30.2-35.2,33.8l-1-0.9c23.4-23.8,33-49.9,33.4-51.8h-15
	c-9,0-12.2,0.3-15.9,0.9l-2.4-5.3c9,0.7,19.3,0.9,20.9,0.9h15c-0.1-20.2-0.1-24.6-3.4-35l14,3.1c3.2,0.7,4.1,1.6,4.1,2.9
	c0,1.2-1.2,2.2-2.5,3.4v25.6h7.5l6.5-7.1c0.7-0.7,1.5-1.8,2.4-1.8c1,0,2.1,0.9,2.8,1.6l6.8,6.8c0.6,0.6,1.3,1.5,1.3,2.4
	C163.2,201.6,161.9,201.8,161,201.8z"/>
<path class="st1" d="M299.2,290.6c-8.7-3.8-23-14.9-30.8-25.3c-7.8,7.9-29.9,23-56.1,25.7l-0.4-1c30.6-11,46.1-28.5,50.3-34.6
	c-8.4-16.9-8.4-33.8-8.4-38.1c0-4.4,0.3-7.4,0.4-9.3c-4.4,7.7-12.5,20.9-20.2,27.4l-0.7-0.9c1.5-2.1,3.5-4.9,7.1-12.5
	c-0.6,0.4-1.2,0.6-1.8,0.6h-18.4V260c9-1.6,16.6-2.9,24.1-5v1.2c-13.1,7.2-42.4,18.7-52.5,22.1c-1.2,2.8-1.8,4.3-3.5,4.3
	c-1.5,0-2.1-1.2-2.5-2.1l-7.5-15.7c2.5,0.1,6.5,0.3,10.9,0.1v-31.2c0-4-0.3-27.1-0.7-31.8c-0.4-3.5-1-6.2-1.6-8.2l15.2,4
	c1.3,0.3,2.2,1.2,2.2,2.4c0,1-0.4,1.8-3.8,3.8c-0.3,5.9-0.3,7.1-0.3,21.3v38.4c1.3-0.3,7.8-1.3,9.1-1.6v-80.6h-9.1
	c-10.3,0-13.1,0.6-15.9,1l-2.5-5.4c7.1,0.6,14,0.9,21,0.9H226l5.7-7.2c1.3-1.6,1.6-1.9,2.4-1.9c0.4,0,1,0.3,2.6,1.6l8.7,7.2
	c0.6,0.6,1.5,1.3,1.5,2.4c0,1.5-1.5,1.5-2.2,1.5h-24.4v37.8h2.6l5.7-6.2c0.7-0.9,1.5-1.9,2.4-1.9c0.9,0,2.1,0.9,2.6,1.6l5.9,6.2
	c0.6,0.7,1.3,1.5,1.3,2.4c3.8-8.5,17.2-40.5,17.2-56.2c0-1.3-0.1-2.1-0.3-3.2l17.1,7.1c0.7,0.3,1.6,0.9,1.6,2.2c0,1.5-0.7,1.8-6,3.5
	c-1.6,4.3-4.6,11.9-10.7,23.7h28.1l6.2-6.5c0.7-0.9,1.5-1.8,2.4-1.8c0.9,0,1.6,0.7,2.8,1.5l9.3,6.6c0.6,0.4,1.5,1.3,1.5,2.1
	c0,1.6-1.5,1.6-2.2,1.6H287l8.8,4.1c0.9,0.4,1.3,1.3,1.3,2.1c0,1.5-2.6,2.6-5.6,3.8c-0.9,6.5-4,26-16.2,44.9
	c2.6,2.6,16.3,16.3,38.1,19.6v0.9C302.3,283.9,300.4,287.6,299.2,290.6z M257.8,201.7c-0.7,1.3-0.9,1.6-1.6,2.9
	c0.6,17.4,6.9,33.7,11.5,41.8c7.1-13.8,10.9-29.1,11.8-44.7H257.8z"/>
<path class="st2" d="M463.5,289.8c-6.2,3.5-16,3.5-21.2,3.5c-31.3,0-36-0.1-36-17.1c0-12.1,0.1-29,0.3-32.2h-15.3l5.4,2.9
	c1,0.6,1.8,1.5,1.8,2.8c0,1.2-1.6,2.1-4.1,2.9c-8.7,21.3-24.3,41.5-60.9,43.4v-0.9c33.7-8.5,47.5-38,47.5-51.2h-5.9
	c0.3,8.8-7.1,8.8-7.9,8.8c-2.8,0-5.6-1-5.6-5.1c0-1.5,0.4-8.1,0.4-9.4c0.4-13.2,0.7-26.9,0.7-40.2c0-20-0.3-21.9-2.4-35.3l14.4,7.7
	h54.3l5-5.4c0.6-0.7,1.5-2.1,2.4-2.1c1,0,2.1,1.2,2.9,1.9l7.2,7.1c1.3,1.3,1.6,1.8,1.6,2.5s-0.3,1.3-1.5,2.2l-4.3,3.1
	c0,5.3,0.3,34.4,0.9,52.8c0,1.9,0.4,10,0.4,11.6c0,7.4-7.9,8.2-9.1,8.2c-4.3,0-4.3-3.8-4.3-6.6v-1.8h-11.6c0.1,9.7,0.1,20.2,0,29.7
	c-0.1,6.3,1.6,7.1,7.5,7.1c6.6,0,18.2,0,19.9-0.3c7.7-1.2,11.6-14.9,14.7-27.2h0.7c0.3,4.9,1.2,20.9,4.3,23.2c3.7,2.8,4,3.1,4,5.1
	C469.8,286.1,465,288.9,463.5,289.8z M430.5,174h-55.5v18.7h55.5V174z M430.5,196.2h-55.5V217h55.5V196.2z M430.5,220.5h-55.5v20
	h55.5V220.5z"/>
<path class="st1" d="M634.5,226.9h-41.2c0,8.4,0.4,45.3,0.1,52.8c-0.3,9.3-6.3,15.3-20,17.1c-0.1-3.4-0.6-5.9-5.6-10.4
	c-0.6-0.6-5.7-5.2-11-7.9l0.3-1.2c3.8,0.6,16.8,1,21.6,1c1.8,0,2.1-1.5,2.1-3.1c0-13.5,0.1-34.9,0.1-48.3h-57.7
	c-9,0-12.2,0.3-15.9,1l-2.5-5.4c9,0.7,19.4,0.9,21,0.9h54.9c-0.3-20.3-0.4-24.4-3.7-30.6l16.6,4.6c1,0.3,3.2,1,3.2,2.8
	c0,1.3-0.7,1.8-3.7,3.8v19.4h21l6.5-9.1c0.3-0.4,1.3-1.9,2.2-1.9c1,0,2.1,1,2.6,1.6l9.4,9c0.4,0.3,1.6,1.3,1.6,2.4
	C636.7,226.6,635.5,226.9,634.5,226.9z M627.3,193.6c-7.4,5.3-9.3,6.8-16.3,10.4l-0.9-0.6c0.3-0.7,4.3-13.1,3.8-18h-87.3
	c0.1,1.5,0.3,2.6,0.3,4.3c0,12.5-6.8,19.6-13.8,19.6c-4.6,0-7.1-3.4-7.1-6.5c0-4.9,3.5-7.8,7.2-11c7.4-6.2,8.8-14.7,8.8-19.1h0.9
	c1.5,3.4,2.4,5.6,3.1,9.3h38.1c0-14-1-16.8-3.2-23.1l17.8,4.7c1.6,0.4,2.6,1,2.6,2.1c0,1.5-1.6,2.6-4.7,4.9V182h36.9l4.6-4.9
	c0.7-0.7,1.8-1.9,2.6-1.9c0.9,0,2.9,1.8,3.5,2.2l10.2,9c1,0.9,1.9,1.6,1.9,3.8C636.4,193,634.2,193.2,627.3,193.6z M548.5,266
	c-6.3,0-7.4-5.6-8.4-12.5c-1.3-7.9-4.9-16.9-8.1-21.2l0.7-0.4c6.5,2.9,23.4,11,23.4,24.3C556.2,262.6,551.9,266,548.5,266z"/>
<path class="st1" d="M728.3,279.8c-7.5,7.1-18,13.8-24.4,15.2l-0.6-0.6c30.6-22.4,33.4-56.1,33.4-74.5c0-10-0.9-34.4-11.9-34.4
	c-5.1,0-9.3,4.7-14.7,15.4c-6.9,13.7-9.7,27.2-9.7,34.9c0,2.4,1.6,12.7,1.6,14.9c0,1.5,0,5.6-4.9,5.6c-5.9,0-12.1-10.4-12.1-28.2
	c0-9.4,1-20.6,2.5-30.5c0.4-3.1,2.9-17.4,2.9-20c0-1.6-0.3-8.7-8.1-13.1c2.8-1,6-2.1,8.4-2.1c4.4,0,12.9,5.3,12.9,11.5
	c0,2.2-0.6,3.8-1.9,6.5c-6,12.4-8.8,22.8-8.8,37.7c0,1.8,0,9.6,1,9.6c0.7,0,1-0.9,1.3-1.5c7.5-22.8,18.1-48.3,33.1-48.3
	c19.4,0,21.2,30.6,21.2,44.6C749.7,250.4,743.2,265.8,728.3,279.8z"/>
<path class="st1" d="M921.4,280.1c-11.5-12.2-18.4-21.6-23.7-33.7c-10.3-23.2-13.1-41.1-13.1-49.7h-0.3c-2.8,3.7-5.4,7.5-11.5,12.9
	c15.6,13.1,22.1,33.5,22.1,54c0,19-6.2,28.5-23.4,30.2c-0.7-4.4-1.2-7.7-13.1-17.1v-0.6c3.2,0.4,12.2,1.8,14.7,1.8
	c4.3,0,6.6-1.2,7.8-4.3c1.5-4,2.1-13.5,1.9-21c-12.8,13.8-34,28-58.3,35.8l-0.1-0.7c16.8-10.6,43.4-33.7,56.6-51.9
	c-0.4-2.4-0.7-3.8-1.3-5.9c-10,11.3-27.5,24.7-48.4,31.3l-0.3-0.7c20.2-14.7,35.9-32.1,42.8-43.6c-0.9-1.5-1.5-2.6-3.2-5.1
	c-9.9,8.5-19.1,14.3-29.1,17.7c0.7,3.1,1,6,1,8.8c0,8.8-2.5,18.2-19.1,20.2c-0.4-3.7-0.7-6.6-9.1-12.8c0.1,13.2,0.3,27.1,0.3,40.3
	c0,5.1-2.5,8.4-6.6,8.4c-1.8,0-6.2-0.3-6.2-4.9c0-1.3,0.1-3.5,0.3-5.3c0.6-7.1,0.6-93.4,0.6-107.1c0-10.2-0.6-12.1-1.5-15.3
	l13.1,6.2h14.3l3.8-4.4c0.3-0.4,1.3-1.6,2.2-1.6c0.7,0,1.9,0.9,2.5,1.5l8.7,7.8c0.9,0.7,1.3,1.6,1.3,2.5c0,2.4-3.4,3.2-5.6,3.8
	c-4.4,8.8-13.5,21.2-19.3,27.2c12.5,8.5,18,20.7,18.7,23.1c15.9-12.9,22.7-23.8,27.2-31h-12.4c-10.2,0-13.1,0.4-15.9,0.9l-2.4-5.3
	c6.9,0.6,14,0.9,20.9,0.9h26.9c1.3-3.4,10.2-25,10.2-30.2c0-1.3-0.1-2.6-0.4-4.1l15.6,8.5c0.9,0.4,1.8,1.3,1.8,2.2
	c0,0.6-0.3,1.3-0.7,1.5c-1.2,0.4-4,0.9-5.4,1c-4.9,8.1-11.9,14.6-18.8,21h21.3l6.3-8.4c1.2-1.6,1.8-1.8,2.2-1.8c1,0,2.4,1.2,2.8,1.5
	l9.4,8.4c0.7,0.6,1.5,1.3,1.5,2.2c0,1.5-1.5,1.6-2.2,1.6h-41.1c3.4,16.5,7.7,25.7,10.6,31.2c0.9-1,13.8-19,14.4-24.7l12.8,12.5
	c0.4,0.4,0.6,0.9,0.6,1.8c0,1.5-1.3,2.5-2.8,2.5c-0.6,0-2.2-0.4-4-0.9c-4.7,3.1-17.8,10.3-19.9,11.2c8.5,15.6,21.2,28.5,35.2,39.3
	v0.9C928.7,272,926.2,272.9,921.4,280.1z M819.1,205.4c4.7-12.9,8.2-23.2,10.6-34h-15.3c0,11.3-0.1,61.4-0.1,71.7
	c4.1,0.7,6,0.9,8.2,0.9c2.8,0,7.9,0,7.9-9.7C830.4,223.6,825.6,211.3,819.1,205.4z M866.6,189.8c-4.6,0-4.9-1.8-7.5-11
	c-1-3.8-4.3-10.9-9.6-15.9l0.1-0.4c11,1.3,23.5,11,23.5,19.9C873.2,186.1,870.9,189.8,866.6,189.8z"/>
</svg>
